<?xml version="1.0" encoding="UTF-8"?><svg xmlns="http://www.w3.org/2000/svg" xmlns:xlink="http://www.w3.org/1999/xlink" contentScriptType="text/ecmascript" width="1440pt" zoomAndPan="magnify" contentStyleType="text/css" viewBox="0 0 1440 74.999997" height="74.999997pt" preserveAspectRatio="xMidYMid meet" version="1.2"><defs><clipPath xml:id="clip1" id="clip1"><path d="M 0.703125 0.585938 L 1439.285156 0.585938 L 1439.285156 75 L 0.703125 75 Z M 0.703125 0.585938 "/></clipPath><clipPath xml:id="clip2" id="clip2"><path d="M 860 0.585938 L 1081.445312 0.585938 L 1081.445312 4.738281 L 860 4.738281 Z M 860 0.585938 "/></clipPath><clipPath xml:id="clip3" id="clip3"><path d="M 204.128906 0.585938 L 1173.925781 0.585938 L 1173.925781 16.367188 L 204.128906 16.367188 Z M 204.128906 0.585938 "/></clipPath><clipPath xml:id="clip4" id="clip4"><path d="M 0.703125 0.585938 L 1439.285156 0.585938 L 1439.285156 28.824219 L 0.703125 28.824219 Z M 0.703125 0.585938 "/></clipPath><clipPath xml:id="clip5" id="clip5"><path d="M 0.703125 0.585938 L 1439.285156 0.585938 L 1439.285156 36.714844 L 0.703125 36.714844 Z M 0.703125 0.585938 "/></clipPath><clipPath xml:id="clip6" id="clip6"><path d="M 0.703125 0.585938 L 1439.285156 0.585938 L 1439.285156 46.269531 L 0.703125 46.269531 Z M 0.703125 0.585938 "/></clipPath><clipPath xml:id="clip7" id="clip7"><path d="M 0.703125 4.738281 L 1439.285156 4.738281 L 1439.285156 57 L 0.703125 57 Z M 0.703125 4.738281 "/></clipPath><clipPath xml:id="clip8" id="clip8"><path d="M 0.703125 15.121094 L 1439.285156 15.121094 L 1439.285156 72.847656 L 0.703125 72.847656 Z M 0.703125 15.121094 "/></clipPath><clipPath xml:id="clip9" id="clip9"><path d="M 0.703125 32.148438 L 1439.285156 32.148438 L 1439.285156 75 L 0.703125 75 Z M 0.703125 32.148438 "/></clipPath><clipPath xml:id="clip10" id="clip10"><path d="M 0.703125 49.175781 L 1439.285156 49.175781 L 1439.285156 75 L 0.703125 75 Z M 0.703125 49.175781 "/></clipPath><clipPath xml:id="clip11" id="clip11"><path d="M 0.703125 63.710938 L 1439.285156 63.710938 L 1439.285156 75 L 0.703125 75 Z M 0.703125 63.710938 "/></clipPath><clipPath xml:id="clip12" id="clip12"><path d="M 0.703125 74.507812 L 1439.285156 74.507812 L 1439.285156 75 L 0.703125 75 Z M 0.703125 74.507812 "/></clipPath></defs><g xml:id="surface1" id="surface1"><rect x="0" width="1440" y="0" height="74.999997" style="fill:rgb(100%,100%,100%);fill-opacity:1;stroke:none;"/><rect x="0" width="1440" y="0" height="74.999997" style="fill:rgb(100%,100%,100%);fill-opacity:1;stroke:none;"/><rect x="0" width="1440" y="0" height="74.999997" style="fill:rgb(100%,100%,100%);fill-opacity:1;stroke:none;"/><g clip-rule="nonzero" clip-path="url(#clip1)"><path style=" stroke:none;fill-rule:evenodd;fill:rgb(70.588684%,59.609985%,41.958618%);fill-opacity:1;" d="M 0.703125 190.792969 L 1439.285156 190.792969 L 1439.285156 0.574219 L 0.703125 0.574219 L 0.703125 190.792969 "/></g><g clip-rule="nonzero" clip-path="url(#clip2)"><path style=" stroke:none;fill-rule:evenodd;fill:rgb(93.328857%,79.60968%,56.469727%);fill-opacity:1;" d="M 860.101562 0.574219 C 930.390625 4.988281 991.855469 6.175781 1052.832031 2.570312 C 1062.25 2.042969 1071.667969 1.34375 1081.082031 0.574219 L 860.101562 0.574219 "/></g><g clip-rule="nonzero" clip-path="url(#clip3)"><path style=" stroke:none;fill-rule:evenodd;fill:rgb(93.328857%,79.60968%,56.469727%);fill-opacity:1;" d="M 204.21875 0.574219 C 210.203125 1.027344 216.191406 1.414062 222.105469 1.765625 C 245.734375 3.164062 265.863281 4.144531 285.816406 4.355469 C 305.765625 4.601562 325.328125 4.074219 347.773438 2.535156 C 371.824219 0.820312 419.285156 1.90625 468.953125 2.988281 C 509.316406 3.867188 551.148438 4.8125 583.074219 4.320312 C 597.113281 4.109375 608.730469 3.550781 620.109375 2.988281 C 636.414062 2.183594 652.175781 1.414062 673.066406 1.800781 C 694.28125 2.148438 722.636719 3.515625 753.371094 5.300781 C 783.859375 7.085938 816.976562 9.292969 847.707031 11.359375 C 923.175781 16.402344 988.285156 17.980469 1052.800781 14.164062 C 1092.566406 11.816406 1132.085938 7.4375 1173.667969 0.574219 L 1139.402344 0.574219 C 1109.960938 4.566406 1081.292969 7.367188 1052.484375 9.050781 C 988.25 12.832031 923.351562 11.289062 848.054688 6.246094 C 819.5625 4.320312 788.96875 2.289062 759.878906 0.574219 L 204.21875 0.574219 "/></g><g clip-rule="nonzero" clip-path="url(#clip4)"><path style=" stroke:none;fill-rule:evenodd;fill:rgb(92.549133%,81.17981%,60.778809%);fill-opacity:1;" d="M 1434.105469 0.574219 C 1435.75 1.835938 1437.5 3.234375 1439.285156 4.742188 L 1439.285156 0.574219 Z M 0.703125 3.09375 L 0.703125 0.574219 L 155.59375 0.574219 C 158.355469 0.851562 161.128906 1.167969 163.890625 1.484375 L 166.6875 1.800781 C 227.496094 8.523438 289.910156 8.277344 351.410156 8.035156 C 361.769531 8 372.066406 7.964844 382.351562 7.964844 C 407.804688 7.929688 434.164062 7.859375 460.519531 7.789062 C 470.289062 7.753906 480.058594 7.753906 489.785156 7.71875 C 503.648438 7.683594 516.738281 7.929688 529.660156 8.140625 C 555.691406 8.628906 580.902344 9.085938 609.535156 7.230469 C 615.449219 6.84375 621.261719 6.492188 627.035156 6.246094 C 632.671875 5.964844 638.101562 5.828125 643.316406 5.792969 C 651.609375 5.792969 659.488281 5.863281 666.839844 6.070312 C 674.925781 6.246094 682.414062 6.527344 689.277344 6.914062 C 703.871094 7.683594 724.246094 8.980469 748.503906 10.484375 C 790.578125 13.148438 844.242188 16.546875 898.148438 19.171875 C 920.480469 20.292969 941.34375 21.273438 960.984375 22.042969 C 980.792969 22.777344 999.523438 23.269531 1017.652344 23.339844 C 1064.769531 23.550781 1105.375 19.660156 1145.386719 13.113281 C 1166.597656 9.644531 1187.707031 5.371094 1209.550781 0.574219 L 1232.828125 0.574219 C 1202.898438 7.4375 1174.71875 13.496094 1146.191406 18.15625 C 1105.96875 24.773438 1065.085938 28.664062 1017.652344 28.453125 C 999.382812 28.382812 980.585938 27.894531 960.808594 27.15625 C 940.925781 26.386719 920.132812 25.371094 897.902344 24.285156 C 843.648438 21.621094 790.125 18.261719 748.191406 15.597656 C 723.757812 14.058594 703.246094 12.761719 689 12.027344 C 682.066406 11.640625 674.609375 11.359375 666.730469 11.148438 C 659.347656 10.976562 651.539062 10.90625 643.316406 10.90625 C 638.273438 10.90625 632.886719 11.078125 627.25 11.359375 C 621.789062 11.605469 615.90625 11.957031 609.851562 12.34375 C 581.144531 14.199219 555.808594 13.742188 529.550781 13.253906 C 516.667969 13.042969 503.578125 12.796875 489.785156 12.832031 C 480.058594 12.867188 470.289062 12.867188 460.519531 12.902344 C 434.164062 12.972656 407.804688 13.042969 382.351562 13.078125 C 372.09375 13.078125 361.769531 13.113281 351.453125 13.148438 C 289.734375 13.390625 227.144531 13.636719 166.132812 6.875 L 163.324219 6.5625 C 141.738281 4.179688 120.070312 1.765625 95.914062 1.625 C 74.144531 1.519531 52.582031 1.972656 35.074219 2.359375 C 31.894531 2.429688 28.851562 2.5 25.972656 2.570312 C 23 2.640625 20.023438 2.710938 17.015625 2.746094 C 11.65625 2.882812 6.230469 2.988281 0.703125 3.09375 "/></g><g clip-rule="nonzero" clip-path="url(#clip5)"><path style=" stroke:none;fill-rule:evenodd;fill:rgb(92.549133%,81.17981%,60.778809%);fill-opacity:1;" d="M 1412.820312 0.574219 C 1423.707031 6.039062 1432.179688 12.796875 1439.285156 19.660156 L 1439.285156 14.058594 C 1434.105469 9.328125 1428.222656 4.707031 1421.328125 0.574219 Z M 0.703125 12.65625 C 7.070312 12.480469 13.476562 12.238281 19.882812 11.992188 C 26.777344 11.710938 33.21875 11.429688 39.34375 11.148438 C 49.953125 10.660156 59.75 10.207031 69.484375 9.957031 C 101.828125 9.257812 134.210938 12.410156 166.554688 15.527344 C 181.957031 17 197.320312 18.503906 212.546875 19.554688 C 241.007812 21.585938 271.007812 22.988281 301.039062 23.621094 C 328.902344 24.214844 356.730469 24.109375 383.375 23.164062 C 396.566406 22.707031 413.929688 22.148438 432.972656 21.867188 C 452.046875 21.554688 472.804688 21.484375 492.828125 21.9375 C 503.753906 22.183594 514.011719 22.882812 524.125 23.550781 C 537.566406 24.460938 550.726562 25.335938 565.324219 25.160156 C 578.910156 24.984375 591.578125 24.109375 604.214844 23.269531 C 618.007812 22.324219 631.796875 21.378906 646.433594 21.34375 C 680.769531 21.308594 718.050781 24.320312 752.949219 27.121094 C 757.117188 27.472656 761.246094 27.789062 765.339844 28.101562 C 784.246094 29.609375 806.054688 31.007812 828.945312 32.199219 C 850.789062 33.355469 873.648438 34.265625 895.910156 34.863281 C 931.367188 35.84375 971.238281 36.824219 1010.863281 36.578125 C 1050.523438 36.332031 1089.90625 34.863281 1124.316406 30.90625 C 1167.542969 25.964844 1210.425781 17.105469 1252.328125 5.441406 C 1258.660156 3.691406 1264.820312 2.042969 1270.773438 0.574219 L 1254.636719 0.574219 C 1253.515625 0.890625 1252.359375 1.203125 1251.242188 1.519531 C 1209.585938 13.113281 1166.84375 21.902344 1123.859375 26.84375 C 1089.554688 30.765625 1050.3125 32.234375 1010.828125 32.480469 C 971.269531 32.726562 931.4375 31.746094 896.011719 30.765625 C 873.890625 30.167969 851.066406 29.257812 829.15625 28.136719 C 806.472656 26.949219 784.699219 25.546875 765.65625 24.039062 C 761.5625 23.726562 757.429688 23.375 753.261719 23.023438 C 718.398438 20.222656 681.085938 17.246094 646.433594 17.246094 C 631.519531 17.28125 617.761719 18.226562 603.9375 19.171875 C 591.265625 20.046875 578.59375 20.921875 565.289062 21.0625 C 550.9375 21.238281 537.8125 20.363281 524.40625 19.453125 C 514.320312 18.785156 504.136719 18.121094 492.933594 17.839844 C 472.847656 17.386719 452.011719 17.457031 432.902344 17.769531 C 413.753906 18.085938 396.390625 18.609375 383.234375 19.066406 C 356.667969 20.011719 328.902344 20.117188 301.144531 19.523438 C 271.289062 18.925781 241.363281 17.492188 212.828125 15.492188 C 197.425781 14.40625 182.160156 12.9375 166.9375 11.464844 C 134.492188 8.3125 102.003906 5.160156 69.375 5.898438 C 59.511719 6.109375 49.703125 6.5625 39.167969 7.050781 C 32.972656 7.332031 26.539062 7.648438 19.707031 7.929688 C 13.371094 8.171875 7.03125 8.382812 0.703125 8.558594 L 0.703125 12.65625 "/></g><g clip-rule="nonzero" clip-path="url(#clip6)"><path style=" stroke:none;fill-rule:evenodd;fill:rgb(92.549133%,81.17981%,60.778809%);fill-opacity:1;" d="M 1370.992188 0.574219 C 1394.058594 3.933594 1416.742188 13.113281 1439.285156 30.976562 L 1439.285156 24.496094 C 1424.269531 13.113281 1409.148438 5.40625 1393.847656 0.574219 Z M 0.703125 22.882812 C 5.074219 22.675781 9.453125 22.5 13.792969 22.289062 C 65.210938 20.082031 117.652344 17.769531 163.300781 24.984375 C 186.675781 28.664062 209.085938 30.800781 231.523438 31.992188 C 253.921875 33.183594 276.398438 33.425781 299.882812 33.390625 C 349.210938 33.285156 391.28125 32.902344 432.171875 32.515625 C 449.355469 32.375 466.371094 32.199219 483.515625 32.097656 C 496.652344 31.992188 511.558594 32.902344 526.402344 33.8125 C 546.25 35.039062 565.992188 36.226562 581.597656 35.039062 C 615.695312 32.375 635.4375 31.082031 655.425781 31.152344 C 675.378906 31.21875 695.894531 32.65625 731.527344 35.492188 C 758.898438 37.628906 785.222656 39.554688 808.886719 41.0625 C 831.359375 42.5 851.3125 43.546875 867.273438 44.109375 C 879.109375 44.53125 897.625 45.125 920.203125 45.582031 C 942.746094 46 969.3125 46.316406 997.28125 46.175781 C 1045.132812 45.929688 1085.949219 45.6875 1126.554688 41.972656 C 1167.230469 38.261719 1207.625 31.082031 1254.460938 16.964844 C 1278.507812 9.714844 1301.824219 3.375 1324.574219 0.574219 L 1295.417969 0.574219 C 1281.484375 3.691406 1267.378906 7.71875 1252.988281 12.0625 C 1206.46875 26.105469 1166.390625 33.214844 1126.097656 36.894531 C 1085.703125 40.570312 1044.992188 40.816406 997.28125 41.0625 C 969.347656 41.203125 942.816406 40.886719 920.304688 40.464844 C 897.871094 40.011719 879.347656 39.417969 867.449219 38.996094 C 851.734375 38.433594 831.8125 37.386719 809.203125 35.949219 C 785.820312 34.441406 759.496094 32.550781 731.914062 30.378906 C 696.273438 27.542969 675.761719 26.105469 655.425781 26.035156 C 635.125 25.964844 615.347656 27.261719 581.214844 29.925781 C 565.921875 31.113281 546.355469 29.925781 526.71875 28.699219 C 511.839844 27.789062 496.890625 26.878906 483.515625 26.980469 C 466.226562 27.121094 449.285156 27.261719 432.136719 27.402344 C 391.246094 27.789062 349.167969 28.171875 299.882812 28.277344 C 276.53125 28.3125 254.167969 28.066406 231.796875 26.878906 C 209.464844 25.683594 187.207031 23.585938 164.066406 19.941406 C 117.898438 12.65625 65.210938 14.933594 13.582031 17.210938 C 9.277344 17.386719 4.96875 17.5625 0.703125 17.734375 L 0.703125 22.882812 "/></g><g clip-rule="nonzero" clip-path="url(#clip7)"><path style=" stroke:none;fill-rule:evenodd;fill:rgb(92.549133%,81.17981%,60.778809%);fill-opacity:1;" d="M 0.703125 32.0625 C 8.402344 31.886719 15.964844 31.710938 23.492188 31.535156 C 57.894531 30.730469 91.328125 29.925781 125.523438 30.765625 C 149.328125 31.359375 170.925781 33.953125 192.660156 36.578125 C 206.84375 38.296875 221.089844 39.976562 236.136719 41.167969 C 242.296875 41.65625 248.113281 41.902344 253.507812 41.972656 C 259.488281 42.078125 264.8125 41.9375 269.464844 41.65625 C 282.347656 40.851562 295.648438 40.535156 309.089844 40.5 C 322.566406 40.464844 336.253906 40.710938 349.871094 41.0625 C 388.167969 42.007812 423.417969 41.132812 459.679688 40.257812 C 485.796875 39.625 508.582031 38.785156 534.730469 41.550781 C 571.730469 45.476562 598.507812 43.582031 635.507812 40.992188 C 647.410156 40.117188 659.347656 39.453125 671.355469 39.453125 C 673.140625 39.453125 680.980469 40.152344 693.476562 41.203125 C 736.847656 44.949219 836.296875 53.53125 939.070312 55.738281 C 976.839844 56.578125 1014.957031 57.210938 1053.007812 56.367188 C 1121.652344 54.824219 1171.082031 55.28125 1237.167969 35.457031 C 1274.132812 24.390625 1310.78125 11.429688 1349.882812 9.152344 C 1353.628906 8.945312 1357.304688 8.910156 1360.910156 9.085938 C 1390.453125 10.308594 1416.390625 26.246094 1439.285156 46.070312 L 1439.285156 38.050781 C 1431.757812 32.0625 1424.339844 26.910156 1416.953125 22.5 C 1395.25 9.679688 1373.722656 3.691406 1349.671875 5.09375 C 1316.769531 6.980469 1283.863281 16.296875 1251.101562 25.683594 C 1177.519531 46.769531 1131.347656 50.449219 1054.09375 52.234375 C 1015.695312 53.144531 977.226562 52.480469 939.140625 51.675781 C 836.714844 49.433594 737.195312 40.886719 693.792969 37.140625 C 669.8125 35.074219 651.679688 35.5625 627.390625 37.140625 C 594.03125 39.277344 567.984375 40.1875 534.664062 37.140625 C 508.757812 34.757812 485.476562 35.5625 459.574219 36.191406 C 423.378906 37.070312 388.167969 37.910156 349.976562 36.964844 C 336.324219 36.648438 322.636719 36.371094 309.089844 36.402344 C 295.472656 36.4375 282.101562 36.753906 269.222656 37.558594 C 264.597656 37.839844 259.347656 37.980469 253.574219 37.910156 C 248.359375 37.804688 242.652344 37.558594 236.417969 37.070312 C 221.511719 35.914062 207.304688 34.195312 193.15625 32.515625 C 171.382812 29.886719 149.75 27.296875 125.632812 26.703125 C 91.328125 25.828125 57.867188 26.632812 23.414062 27.4375 C 15.894531 27.613281 8.296875 27.789062 0.703125 27.960938 L 0.703125 32.0625 "/></g><g clip-rule="nonzero" clip-path="url(#clip8)"><path style=" stroke:none;fill-rule:evenodd;fill:rgb(92.549133%,81.17981%,60.778809%);fill-opacity:1;" d="M 0.703125 42.636719 C 6.722656 42.566406 12.636719 42.460938 18.515625 42.359375 C 89.957031 41.238281 153.316406 40.21875 235.6875 50.0625 C 249.128906 51.675781 262.050781 51.289062 274.925781 50.9375 C 284.976562 50.660156 295.019531 50.378906 305.277344 51.042969 C 310.941406 51.429688 316.160156 51.816406 320.960938 52.164062 C 344.480469 53.882812 358.308594 54.863281 387.503906 52.898438 C 394.324219 52.445312 401.679688 51.953125 409.171875 51.535156 C 416.902344 51.082031 424.917969 50.660156 433.007812 50.308594 C 443.925781 49.816406 455.027344 49.46875 465.664062 49.363281 C 476.273438 49.257812 486.527344 49.363281 495.765625 49.855469 C 511.488281 50.625 523.570312 51.746094 534.664062 52.761719 C 558.777344 55 578.136719 56.824219 618.113281 53.671875 C 675.832031 49.152344 734.644531 54.371094 793.101562 59.519531 C 820.332031 61.9375 847.460938 64.320312 874.660156 65.753906 C 880.367188 66.070312 886.105469 66.28125 891.847656 66.453125 C 897.726562 66.628906 903.363281 66.734375 908.71875 66.734375 C 933.402344 66.734375 959.300781 67.367188 985.589844 68.03125 C 996.511719 68.277344 1007.46875 68.558594 1018.527344 68.769531 C 1107.023438 72.933594 1178.570312 71.183594 1262.265625 41.691406 C 1337.386719 17.628906 1371.832031 7.019531 1430.605469 64.457031 C 1433.40625 67.191406 1436.273438 69.957031 1439.285156 72.65625 L 1439.285156 54.335938 C 1414.78125 36.265625 1394.757812 23.128906 1373.128906 17.910156 C 1340.921875 10.167969 1305.671875 21.902344 1274.097656 32.445312 C 1269.6875 33.882812 1265.347656 35.355469 1260.691406 36.824219 C 1176.644531 63.757812 1105.65625 65.472656 1018.636719 63.6875 C 1007.714844 63.445312 996.6875 63.164062 985.691406 62.917969 C 958.988281 62.253906 932.695312 61.621094 908.71875 61.621094 C 902.976562 61.621094 897.414062 61.515625 891.988281 61.339844 C 886.421875 61.203125 880.714844 60.957031 874.941406 60.640625 C 848.160156 59.238281 820.894531 56.824219 793.554688 54.40625 C 734.886719 49.222656 675.871094 44.003906 617.726562 48.558594 C 578.101562 51.675781 558.953125 49.886719 535.121094 47.679688 C 523.949219 46.632812 511.734375 45.511719 496.015625 44.738281 C 486.738281 44.285156 476.378906 44.144531 465.59375 44.25 C 454.816406 44.390625 443.679688 44.738281 432.761719 45.195312 C 424.535156 45.546875 416.523438 45.964844 408.886719 46.421875 C 401.050781 46.875 393.769531 47.332031 387.152344 47.785156 C 358.34375 49.75 344.621094 48.734375 321.339844 47.050781 C 316.617188 46.703125 311.507812 46.351562 305.621094 45.929688 C 295.230469 45.265625 285.003906 45.546875 274.785156 45.824219 C 262.15625 46.175781 249.480469 46.527344 236.277344 44.984375 C 153.707031 35.105469 90.136719 36.121094 18.445312 37.242188 C 12.601562 37.347656 6.691406 37.453125 0.703125 37.523438 L 0.703125 42.636719 "/></g><g clip-rule="nonzero" clip-path="url(#clip9)"><path style=" stroke:none;fill-rule:evenodd;fill:rgb(92.549133%,81.17981%,60.778809%);fill-opacity:1;" d="M 0.703125 60.78125 C 10.855469 60.78125 21.074219 60.851562 31.402344 61.027344 C 62.589844 61.550781 86.355469 61.132812 108.058594 60.78125 C 151.816406 60.046875 187.304688 59.449219 258.578125 66.945312 C 261.660156 67.261719 265.226562 67.648438 268.941406 68.066406 C 292.496094 70.65625 320.996094 73.777344 342.070312 71.535156 C 354.074219 70.273438 364.609375 69.046875 374.652344 67.890625 C 415.117188 63.269531 446.875 59.660156 487.648438 60.957031 C 497.382812 61.269531 507.707031 62.042969 517.929688 62.847656 C 529.128906 63.6875 540.222656 64.5625 550.867188 64.773438 C 567.84375 65.089844 582.828125 64.179688 598.125 63.269531 C 600.433594 63.128906 602.707031 62.988281 604.460938 62.882812 C 608.132812 62.671875 611.8125 62.460938 615.417969 62.285156 C 619.164062 62.113281 622.90625 61.972656 626.652344 61.867188 C 684.691406 60.117188 740.628906 65.472656 797.964844 70.9375 C 802.585938 71.394531 807.171875 71.847656 811.828125 72.269531 C 866.4375 77.453125 905.640625 77.453125 954.851562 77.453125 C 965.425781 77.453125 976.453125 77.453125 988.179688 77.488281 C 1012.785156 77.59375 1033.757812 78.433594 1053.007812 79.203125 C 1080.136719 80.289062 1103.90625 81.199219 1129.949219 79.800781 C 1157.601562 78.292969 1183.785156 74.371094 1209.65625 69.046875 C 1235.558594 63.722656 1261.007812 57 1287.261719 49.921875 C 1326.253906 39.378906 1351.597656 39.765625 1375.890625 48.523438 C 1395.53125 55.597656 1414.464844 68.136719 1439.285156 84.773438 L 1439.285156 80.222656 C 1386.289062 38.433594 1388.667969 17.175781 1285.929688 44.949219 C 1259.675781 52.058594 1234.226562 58.785156 1208.640625 64.039062 C 1183.015625 69.328125 1157.078125 73.214844 1129.667969 74.6875 C 1103.835938 76.085938 1080.207031 75.175781 1053.21875 74.089844 C 1033.964844 73.320312 1013 72.480469 988.214844 72.375 C 976.453125 72.339844 965.425781 72.339844 954.851562 72.339844 C 905.78125 72.339844 866.679688 72.339844 812.285156 67.191406 C 807.660156 66.734375 803.039062 66.316406 798.453125 65.859375 C 740.941406 60.359375 684.863281 55 626.511719 56.753906 C 622.589844 56.859375 618.8125 57.035156 615.171875 57.210938 C 611.355469 57.382812 607.746094 57.59375 604.175781 57.769531 C 601.726562 57.945312 599.769531 58.050781 597.847656 58.15625 C 582.582031 59.066406 567.636719 59.976562 550.9375 59.660156 C 540.71875 59.449219 529.550781 58.609375 518.316406 57.734375 C 508.160156 56.929688 497.9375 56.15625 487.824219 55.84375 C 446.589844 54.546875 414.707031 58.1875 374.0625 62.8125 C 363.667969 64.003906 352.707031 65.261719 341.539062 66.453125 C 320.996094 68.625 292.8125 65.511719 269.464844 62.953125 C 266 62.566406 262.640625 62.21875 259.101562 61.832031 C 187.585938 54.335938 151.921875 54.929688 107.988281 55.667969 C 86.289062 56.050781 62.589844 56.4375 31.507812 55.914062 C 21.109375 55.738281 10.890625 55.667969 0.703125 55.667969 L 0.703125 60.78125 "/></g><g clip-rule="nonzero" clip-path="url(#clip10)"><path style=" stroke:none;fill-rule:evenodd;fill:rgb(92.549133%,81.17981%,60.778809%);fill-opacity:1;" d="M 0.703125 74.753906 C 3.679688 74.753906 6.691406 74.722656 9.769531 74.753906 C 19.292969 74.753906 28.910156 74.722656 38.613281 74.722656 C 96.09375 74.617188 155.945312 74.476562 212.058594 79.519531 C 246.886719 82.636719 273.980469 84.667969 301.144531 84.457031 C 328.347656 84.246094 355.574219 81.761719 390.683594 75.808594 C 433.355469 68.59375 472 69.890625 513.339844 71.253906 C 520.0625 71.464844 526.851562 71.675781 533.789062 71.882812 C 542.5 72.128906 552.71875 72.339844 563.398438 72.339844 C 574.109375 72.339844 585.207031 72.128906 595.605469 71.429688 C 627.351562 69.292969 651.050781 68.730469 674.363281 69.292969 C 697.609375 69.851562 720.640625 71.535156 750.988281 73.984375 C 775.910156 75.980469 804.371094 79.101562 828.558594 81.761719 L 828.59375 81.761719 L 831.746094 82.109375 C 845.535156 83.617188 857.300781 84.808594 868.988281 85.578125 C 880.714844 86.3125 892.410156 86.59375 906.058594 86.3125 C 911.800781 86.207031 918.242188 86.070312 925.136719 85.964844 C 932.105469 85.859375 939.558594 85.753906 947.257812 85.683594 C 959.230469 85.613281 971.730469 85.507812 984.46875 85.542969 C 997.179688 85.542969 1010.195312 85.683594 1023.148438 85.964844 C 1037.78125 86.28125 1051.785156 87.15625 1065.542969 87.996094 C 1095.085938 89.851562 1123.402344 91.601562 1155.257812 87.679688 C 1184.3125 84.070312 1209.445312 77.699219 1233.003906 71.707031 C 1279.628906 59.835938 1319.957031 49.609375 1371.972656 66.351562 C 1392.972656 73.144531 1414.046875 90.554688 1439.285156 110.515625 L 1439.285156 102.917969 C 1414.117188 82.707031 1391.785156 63.652344 1369.871094 54.757812 C 1334.164062 40.292969 1270.214844 58.015625 1231.988281 67.714844 C 1208.535156 73.671875 1183.542969 80.046875 1154.765625 83.617188 C 1123.230469 87.503906 1095.121094 85.753906 1065.785156 83.898438 C 1052.0625 83.054688 1038.097656 82.183594 1023.253906 81.867188 C 1010.265625 81.585938 997.246094 81.480469 984.46875 81.445312 C 971.691406 81.445312 959.195312 81.515625 947.257812 81.621094 C 939.453125 81.65625 932.035156 81.761719 925.101562 81.867188 C 918.101562 82.007812 911.695312 82.109375 905.988281 82.253906 C 892.511719 82.53125 880.929688 82.214844 869.269531 81.480469 C 857.613281 80.746094 845.886719 79.554688 832.203125 78.046875 L 829.015625 77.699219 C 804.722656 75.035156 776.191406 71.882812 751.304688 69.890625 C 721.023438 67.472656 697.992188 65.753906 674.433594 65.195312 C 650.980469 64.632812 627.144531 65.195312 595.320312 67.332031 C 584.929688 68.03125 573.933594 68.277344 563.398438 68.277344 C 552.789062 68.277344 542.605469 68.03125 533.886719 67.785156 C 527.0625 67.609375 520.242188 67.367188 513.480469 67.15625 C 471.894531 65.789062 433.042969 64.496094 390.019531 71.777344 C 355.125 77.664062 328.0625 80.148438 301.113281 80.359375 C 274.121094 80.605469 247.132812 78.539062 212.40625 75.457031 C 156.089844 70.414062 96.199219 70.519531 38.613281 70.625 C 28.910156 70.625 19.292969 70.65625 9.769531 70.65625 C 6.691406 70.65625 3.679688 70.65625 0.703125 70.65625 L 0.703125 74.753906 "/></g><g clip-rule="nonzero" clip-path="url(#clip11)"><path style=" stroke:none;fill-rule:evenodd;fill:rgb(92.549133%,81.17981%,60.778809%);fill-opacity:1;" d="M 0.703125 85.402344 C 23.945312 85.859375 47.25 86.105469 70.605469 86.3125 C 132.703125 86.875 195.113281 87.433594 257.035156 93.074219 C 273.699219 94.582031 288.367188 95.5625 303.140625 95.527344 C 317.949219 95.527344 332.820312 94.546875 349.871094 92.128906 L 351.0625 91.953125 C 398.5625 85.230469 436.398438 79.871094 486.738281 78.957031 C 503.992188 78.644531 520.9375 79.101562 537.8125 79.554688 C 565.253906 80.324219 592.417969 81.0625 620.109375 78.433594 C 659.660156 74.722656 700.304688 78.152344 740 81.515625 L 743.460938 81.832031 C 764.957031 83.652344 785.644531 85.542969 804.019531 87.433594 C 822.296875 89.292969 838.5 91.113281 851.242188 92.757812 C 872.769531 95.5625 899.757812 95 929.722656 94.335938 C 944.074219 94.019531 959.128906 93.707031 974.527344 93.738281 C 995.882812 93.773438 1018.074219 95.246094 1040.40625 96.71875 C 1080.171875 102.953125 1120.636719 105.789062 1158.304688 96.472656 C 1179.585938 93.25 1202.304688 87.960938 1224.425781 82.8125 C 1241.441406 78.855469 1258.101562 75.003906 1273.328125 72.234375 C 1293.175781 68.625 1311.378906 66.980469 1329.164062 68.625 C 1346.875 70.308594 1358.527344 75.003906 1376.765625 84.597656 C 1394.898438 94.160156 1412.996094 111.636719 1432.214844 122.039062 C 1434.59375 123.335938 1436.972656 124.457031 1439.285156 125.402344 L 1439.285156 115.175781 C 1437.78125 114.40625 1436.238281 113.566406 1434.699219 112.722656 C 1428.152344 109.1875 1420.417969 104.039062 1412.332031 98.644531 C 1403.019531 92.445312 1393.324219 85.964844 1384.363281 81.269531 C 1365.636719 71.394531 1347.78125 66.28125 1329.542969 64.5625 C 1311.34375 62.882812 1292.792969 64.527344 1272.59375 68.207031 C 1257.050781 71.007812 1240.457031 74.898438 1223.480469 78.820312 C 1201.464844 83.96875 1178.851562 89.222656 1157.671875 92.410156 C 1120.8125 97.976562 1080.558594 95.28125 1040.652344 92.652344 C 1018.355469 91.148438 996.160156 89.675781 974.527344 89.640625 C 959.058594 89.605469 944.007812 89.957031 929.652344 90.238281 C 899.828125 90.902344 872.980469 91.464844 851.769531 88.695312 C 838.957031 87.050781 822.714844 85.230469 804.441406 83.371094 C 785.644531 81.445312 764.917969 79.519531 743.777344 77.734375 L 740.347656 77.453125 C 700.476562 74.054688 659.695312 70.589844 619.722656 74.371094 C 592.277344 76.964844 565.21875 76.226562 537.882812 75.492188 C 521.007812 75.035156 503.992188 74.546875 486.703125 74.859375 C 436.019531 75.773438 398.113281 81.164062 350.5 87.890625 L 349.308594 88.066406 C 332.441406 90.449219 317.738281 91.425781 303.140625 91.464844 C 288.507812 91.464844 273.945312 90.515625 257.425781 89.011719 C 195.328125 83.371094 132.808594 82.777344 70.640625 82.214844 C 47.292969 82.007812 23.945312 81.796875 0.703125 81.304688 L 0.703125 85.402344 "/></g><g clip-rule="nonzero" clip-path="url(#clip12)"><path style=" stroke:none;fill-rule:evenodd;fill:rgb(92.549133%,81.17981%,60.778809%);fill-opacity:1;" d="M 0.703125 98.1875 C 25.515625 99.414062 55.652344 101.445312 68.503906 104.210938 C 90.664062 108.976562 161.402344 102.917969 200.4375 109.851562 C 205.757812 110.796875 210.585938 111.5 215.070312 111.988281 C 227.320312 113.320312 236.703125 113.25 244.511719 113.355469 C 256.691406 113.460938 261.414062 114.894531 272.964844 117.800781 C 283.46875 120.429688 296.390625 122.777344 303.941406 118.082031 C 310.140625 114.230469 321.796875 110.515625 334.292969 107.785156 C 378.15625 98.222656 435.667969 95.175781 480.824219 90.761719 C 501.230469 88.765625 514.566406 89.046875 534 88.625 C 573.304688 87.75 656.792969 82.636719 703.90625 85.789062 C 720.921875 86.910156 753.371094 89.886719 792.257812 94.195312 C 833.25 98.75 879.421875 103.828125 912.882812 105.195312 C 914.988281 105.296875 921.601562 105.648438 929.824219 106.136719 C 951.25 107.328125 970.714844 108.589844 991.996094 111.042969 C 1090.988281 122.460938 1119.449219 125.402344 1219.316406 101.164062 C 1242.453125 95.5625 1275.707031 87.050781 1299.40625 88.03125 C 1324.75 89.082031 1352.367188 96.925781 1365.914062 113.84375 C 1373.441406 123.230469 1377.640625 138.851562 1374.914062 150.828125 C 1374.316406 153.5625 1373.230469 155.910156 1371.445312 157.136719 C 1370.117188 158.046875 1368.398438 158.046875 1366.511719 156.050781 C 1365.636719 155.101562 1364.621094 154.125 1363.394531 153.351562 C 1354.539062 147.609375 1344.949219 156.222656 1338.925781 162.636719 C 1320.128906 182.597656 1286.105469 167.851562 1277.109375 169.5 C 1236.886719 176.820312 1210.5625 168.203125 1174.511719 161.441406 C 1149.0625 156.644531 1128.65625 155.945312 1097.429688 162.320312 C 1078.84375 166.101562 1061.199219 171.707031 1049.789062 174.472656 C 1046.007812 175.382812 1037.1875 178.082031 1034 182.28125 C 1032.183594 184.664062 1031.726562 188.132812 1036.347656 190.515625 C 1036.554688 190.621094 1036.730469 190.6875 1036.90625 190.792969 L 1090.21875 190.792969 C 1105.691406 186.628906 1123.402344 184.28125 1142.234375 184.28125 C 1161.035156 184.28125 1178.746094 186.628906 1194.21875 190.792969 L 1383.699219 190.792969 C 1390.875 182.179688 1404.105469 190.792969 1411.246094 190.792969 C 1415.867188 190.792969 1424.722656 189.707031 1428.679688 184.839844 C 1436.101562 175.871094 1427.210938 166.628906 1411.386719 172.546875 C 1407.851562 173.84375 1401.132812 173 1398.085938 170.796875 C 1393.710938 167.574219 1397.628906 162.425781 1407.464844 162.636719 C 1411 162.667969 1415.203125 163.402344 1420.347656 164.070312 C 1426.296875 164.839844 1434.628906 162.109375 1439.285156 158.433594 L 1439.285156 134.367188 C 1438.796875 134.261719 1438.269531 134.125 1437.78125 133.984375 C 1429.554688 131.8125 1418.84375 126.207031 1413.242188 122.25 C 1361.050781 85.542969 1345.753906 66.035156 1275.8125 78.046875 C 1231.394531 85.683594 1164.953125 106.3125 1113.601562 108.203125 C 1075.796875 109.570312 1032.984375 102.179688 990.804688 101.164062 C 970.1875 100.675781 950.167969 101.585938 929.410156 100.429688 C 910.75 99.34375 892.585938 99.238281 873.609375 98.082031 C 835.175781 95.734375 792.996094 89.746094 757.078125 86.628906 C 722.042969 83.582031 697.921875 78.644531 660.746094 79.835938 C 625.570312 80.957031 591.296875 82.882812 555.90625 82.390625 C 531.441406 82.078125 506.90625 81.761719 483.199219 82.601562 C 444.316406 83.933594 395.128906 91.464844 350.957031 96.644531 C 335.867188 98.398438 322.140625 100.183594 309.160156 101.164062 C 293.6875 102.320312 281.722656 101.199219 269.292969 99.902344 C 225.777344 95.351562 171.3125 93.5625 127.769531 94.441406 C 114.785156 94.722656 66.898438 93.039062 28.558594 91.570312 C 19.007812 91.21875 9.796875 90.796875 0.703125 90.480469 L 0.703125 98.1875 "/></g></g></svg>